<svg width="186" height="38" viewBox="0 0 186 38" fill="none" xmlns="http://www.w3.org/2000/svg">
<path fill-rule="evenodd" clip-rule="evenodd" d="M0.0200911 7.16883V14.3372L3.94032 10.4658L7.86054 6.59443V3.29697V0H3.94032H0.0200911V7.16883ZM7.61553 11.1186L0.265105 17.8221L0.132308 27.6521L0 37.4822H4.17504H8.35057V29.7331V21.984L11.8611 18.8015L15.3712 15.6189L18.2315 18.08L21.0913 20.5412V29.0117V37.4822H25.5016H29.9118V27.1118V16.7419L22.7976 10.6829C18.8847 7.35089 15.5216 4.57721 15.3246 4.51977C15.1277 4.46233 11.6583 7.43218 7.61553 11.1186ZM45.5687 10.3738C39.6663 12.0211 36.045 16.3875 35.4653 22.5555C34.8787 28.797 37.5259 33.8868 42.6922 36.4517C45.1963 37.6944 46.3395 37.969 49.0141 37.969C57.7826 37.969 63.389 32.4825 63.443 23.8494C63.492 16.0278 58.6417 10.7584 50.7169 10.0224C48.9778 9.86123 46.8967 10.0029 45.5687 10.3738ZM107.38 10.2433C101.303 11.4851 98.0742 17.4828 101.09 21.9285C102.551 24.0826 104.388 25.0868 109.61 26.588C114.377 27.9588 115.177 28.4081 115.177 29.7185C115.177 31.2144 113.785 32.1276 111.506 32.1276C108.678 32.1276 107.929 31.7898 107.06 30.1216C106.361 28.7771 106.19 28.7201 102.849 28.7201H99.3674L99.6467 30.4287C100.323 34.5722 104.396 37.5046 109.961 37.856C114.118 38.1184 117.027 37.434 119.092 35.7079C121.11 34.0207 122.037 32.1159 122.037 29.6538C122.037 25.6023 119.429 23.2964 112.776 21.4646C107.198 19.9293 106.002 18.8565 107.542 16.7652C108.059 16.0623 108.826 15.8204 110.536 15.8204C112.529 15.8204 113.01 16.0302 114.163 17.4024C115.421 18.8983 115.672 18.9845 118.774 18.9845H122.056L121.733 17.6458C120.35 11.9174 114.346 8.82048 107.38 10.2433ZM136.408 10.218C133.456 10.8353 131.81 11.8064 129.509 14.2851C124.373 19.8208 124.971 30.3017 130.691 34.9855C134.012 37.7051 139.6 38.7288 144.199 37.4598C146.696 36.771 149.982 34.1818 151.305 31.8613C153.002 28.8856 152.875 28.7201 148.89 28.7201C145.611 28.7201 145.249 28.8267 143.804 30.2189C140.865 33.0481 136.381 32.5039 134.268 29.0614C133.742 28.2046 133.311 27.234 133.31 26.9049C133.308 26.4556 135.779 26.2736 143.231 26.1747L153.154 26.0428L153.112 23.1221C153.089 21.5158 152.784 19.3437 152.434 18.2952C151.607 15.8116 148.291 12.2523 145.765 11.1346C143.318 10.052 139.151 9.64412 136.408 10.218ZM170.795 10.1908C168.583 10.7257 166.292 12.0328 165.434 13.2487C164.69 14.3046 164.67 14.2793 164.67 12.2781V10.2224H161.239H157.809V23.8523V37.4822H161.239H164.67L164.672 30.3022C164.676 19.664 165.404 18.0294 170.312 17.6249L173 17.4034V13.5695C173 11.4608 172.835 9.75803 172.632 9.78529C172.43 9.81255 171.603 9.99509 170.795 10.1908ZM68.2212 20.3231C68.3677 29.6878 68.4589 30.5723 69.4771 32.4644C72.6158 38.2976 81.3883 39.8577 86.1357 35.427L87.2451 34.3916V35.9371V37.4822H90.9203H94.5955V23.8523V10.2224H90.9203H87.2451L87.2421 18.1326C87.2392 26.9307 86.8281 29.1831 84.9571 30.6453C82.9412 32.2201 79.3591 32.0215 77.3299 30.2214L75.7294 28.8019L75.577 19.5122L75.4251 10.2224H71.744H68.0629L68.2212 20.3231ZM46.6075 16.9166C44.2466 18.1122 43.0446 19.9692 42.7657 22.8515C42.2723 27.9573 44.9954 31.6374 49.2679 31.6374C53.4008 31.6374 56.0396 28.5838 56.044 23.7978C56.0474 20.2686 54.6656 17.9248 51.944 16.8431C49.458 15.855 48.6818 15.8657 46.6075 16.9166ZM136.19 16.7954C135.117 17.3747 133.308 20.0939 133.308 21.1268C133.308 21.2875 136.064 21.4184 139.433 21.4184C146.031 21.4184 146.176 21.3512 145.027 18.8443C143.868 16.3174 139.116 15.2158 136.19 16.7954Z" fill="white"/>
</svg>
