<svg width="17" height="17" viewBox="0 0 17 17" fill="none" xmlns="http://www.w3.org/2000/svg">
<path d="M15.791 7.45829H9.54102V1.20829C9.54102 0.932025 9.43127 0.667074 9.23592 0.471723C9.04057 0.276373 8.77562 0.166626 8.49935 0.166626C8.22308 0.166626 7.95813 0.276373 7.76278 0.471723C7.56743 0.667074 7.45768 0.932025 7.45768 1.20829V7.45829H1.20768C0.931415 7.45829 0.666463 7.56804 0.471113 7.76339C0.275763 7.95874 0.166016 8.22369 0.166016 8.49996C0.166016 8.77623 0.275763 9.04118 0.471113 9.23653C0.666463 9.43188 0.931415 9.54163 1.20768 9.54163H7.45768V15.7916C7.45768 16.0679 7.56743 16.3328 7.76278 16.5282C7.95813 16.7235 8.22308 16.8333 8.49935 16.8333C8.77562 16.8333 9.04057 16.7235 9.23592 16.5282C9.43127 16.3328 9.54102 16.0679 9.54102 15.7916V9.54163H15.791C16.0673 9.54163 16.3322 9.43188 16.5276 9.23653C16.7229 9.04118 16.8327 8.77623 16.8327 8.49996C16.8327 8.22369 16.7229 7.95874 16.5276 7.76339C16.3322 7.56804 16.0673 7.45829 15.791 7.45829Z" fill="#A1A1A1"/>
</svg>
